<mxfile host="app.diagrams.net" modified="2023-09-29T05:18:18.938Z" agent="Mozilla/5.0 (Windows NT 10.0; Win64; x64) AppleWebKit/537.36 (KHTML, like Gecko) Chrome/116.0.0.0 Safari/537.36 OPR/102.0.0.0" etag="vTmaiM8EkDst5CStvYKd" version="21.8.2" type="device" pages="3">
  <diagram id="u8xKycBFvYfiMleegf5N" name="Страница — 3">
    <mxGraphModel dx="4045" dy="963" grid="1" gridSize="10" guides="1" tooltips="1" connect="1" arrows="1" fold="1" page="1" pageScale="1" pageWidth="1950" pageHeight="1410" math="0" shadow="0">
      <root>
        <mxCell id="0" />
        <mxCell id="1" parent="0" />
        <mxCell id="Aqq1I214zee01IiZER_P-8" value="" style="group" parent="1" vertex="1" connectable="0">
          <mxGeometry x="170" y="330" width="290" height="510" as="geometry" />
        </mxCell>
        <mxCell id="ZAoN_T7L9VO_6eI0HGAk-2" value="" style="strokeWidth=1;shadow=0;dashed=0;align=center;html=1;shape=mxgraph.mockup.containers.window;align=left;verticalAlign=top;spacingLeft=8;strokeColor2=#008cff;strokeColor3=#c4c4c4;fontColor=#666666;mainText=;fontSize=17;labelBackgroundColor=none;whiteSpace=wrap;" parent="Aqq1I214zee01IiZER_P-8" vertex="1">
          <mxGeometry width="270" height="510" as="geometry" />
        </mxCell>
        <mxCell id="Aqq1I214zee01IiZER_P-1" value="user.emai@gmail.com" style="strokeWidth=1;shadow=0;dashed=0;align=center;html=1;shape=mxgraph.mockup.text.textBox;fontColor=#666666;align=left;fontSize=17;spacingLeft=4;spacingTop=-3;whiteSpace=wrap;strokeColor=#666666;mainText=" parent="Aqq1I214zee01IiZER_P-8" vertex="1">
          <mxGeometry x="35" y="195" width="200" height="40" as="geometry" />
        </mxCell>
        <mxCell id="Aqq1I214zee01IiZER_P-2" value="***********" style="strokeWidth=1;shadow=0;dashed=0;align=center;html=1;shape=mxgraph.mockup.text.textBox;fontColor=#666666;align=left;fontSize=17;spacingLeft=4;spacingTop=-3;whiteSpace=wrap;strokeColor=#666666;mainText=" parent="Aqq1I214zee01IiZER_P-8" vertex="1">
          <mxGeometry x="35" y="235" width="200" height="40" as="geometry" />
        </mxCell>
        <mxCell id="Aqq1I214zee01IiZER_P-4" value="Реєстрація" style="text;html=1;strokeColor=none;fillColor=none;align=center;verticalAlign=middle;whiteSpace=wrap;rounded=0;fontSize=22;" parent="Aqq1I214zee01IiZER_P-8" vertex="1">
          <mxGeometry x="60" y="70" width="150" height="60" as="geometry" />
        </mxCell>
        <mxCell id="Aqq1I214zee01IiZER_P-6" value="Зареєструватись" style="rounded=1;fillColor=#007FFF;strokeColor=none;html=1;whiteSpace=wrap;fontColor=#ffffff;align=center;verticalAlign=middle;fontStyle=0;fontSize=12;sketch=0;" parent="Aqq1I214zee01IiZER_P-8" vertex="1">
          <mxGeometry x="20" y="349" width="98" height="31" as="geometry" />
        </mxCell>
        <mxCell id="Aqq1I214zee01IiZER_P-7" value="У мене вже є аккаунт" style="rounded=1;fillColor=#007FFF;strokeColor=none;html=1;whiteSpace=wrap;fontColor=#ffffff;align=center;verticalAlign=middle;fontStyle=0;fontSize=12;sketch=0;" parent="Aqq1I214zee01IiZER_P-8" vertex="1">
          <mxGeometry x="130" y="349" width="130" height="31" as="geometry" />
        </mxCell>
        <mxCell id="Owr6f4ymBUTE9V9lqWrB-1" value="login" style="strokeWidth=1;shadow=0;dashed=0;align=center;html=1;shape=mxgraph.mockup.text.textBox;fontColor=#666666;align=left;fontSize=17;spacingLeft=4;spacingTop=-3;whiteSpace=wrap;strokeColor=#666666;mainText=" vertex="1" parent="Aqq1I214zee01IiZER_P-8">
          <mxGeometry x="35" y="155" width="200" height="40" as="geometry" />
        </mxCell>
        <mxCell id="Owr6f4ymBUTE9V9lqWrB-2" value="***********" style="strokeWidth=1;shadow=0;dashed=0;align=center;html=1;shape=mxgraph.mockup.text.textBox;fontColor=#666666;align=left;fontSize=17;spacingLeft=4;spacingTop=-3;whiteSpace=wrap;strokeColor=#666666;mainText=" vertex="1" parent="Aqq1I214zee01IiZER_P-8">
          <mxGeometry x="35" y="275" width="200" height="40" as="geometry" />
        </mxCell>
        <mxCell id="Aqq1I214zee01IiZER_P-10" value="" style="group" parent="1" vertex="1" connectable="0">
          <mxGeometry x="570" y="330" width="270" height="510" as="geometry" />
        </mxCell>
        <mxCell id="Aqq1I214zee01IiZER_P-11" value="" style="strokeWidth=1;shadow=0;dashed=0;align=center;html=1;shape=mxgraph.mockup.containers.window;align=left;verticalAlign=top;spacingLeft=8;strokeColor2=#008cff;strokeColor3=#c4c4c4;fontColor=#666666;mainText=;fontSize=17;labelBackgroundColor=none;whiteSpace=wrap;" parent="Aqq1I214zee01IiZER_P-10" vertex="1">
          <mxGeometry width="270" height="510" as="geometry" />
        </mxCell>
        <mxCell id="Aqq1I214zee01IiZER_P-12" value="user.emai@gmail.com" style="strokeWidth=1;shadow=0;dashed=0;align=center;html=1;shape=mxgraph.mockup.text.textBox;fontColor=#666666;align=left;fontSize=17;spacingLeft=4;spacingTop=-3;whiteSpace=wrap;strokeColor=#666666;mainText=" parent="Aqq1I214zee01IiZER_P-10" vertex="1">
          <mxGeometry x="35" y="170" width="200" height="40" as="geometry" />
        </mxCell>
        <mxCell id="Aqq1I214zee01IiZER_P-13" value="***********" style="strokeWidth=1;shadow=0;dashed=0;align=center;html=1;shape=mxgraph.mockup.text.textBox;fontColor=#666666;align=left;fontSize=17;spacingLeft=4;spacingTop=-3;whiteSpace=wrap;strokeColor=#666666;mainText=" parent="Aqq1I214zee01IiZER_P-10" vertex="1">
          <mxGeometry x="35" y="235" width="200" height="40" as="geometry" />
        </mxCell>
        <mxCell id="Aqq1I214zee01IiZER_P-14" value="Авторизація" style="text;html=1;strokeColor=none;fillColor=none;align=center;verticalAlign=middle;whiteSpace=wrap;rounded=0;fontSize=22;" parent="Aqq1I214zee01IiZER_P-10" vertex="1">
          <mxGeometry x="60" y="70" width="150" height="60" as="geometry" />
        </mxCell>
        <mxCell id="Aqq1I214zee01IiZER_P-15" value="Авторизуватись" style="rounded=1;fillColor=#007FFF;strokeColor=none;html=1;whiteSpace=wrap;fontColor=#ffffff;align=center;verticalAlign=middle;fontStyle=0;fontSize=12;sketch=0;" parent="Aqq1I214zee01IiZER_P-10" vertex="1">
          <mxGeometry x="90" y="349" width="104" height="31" as="geometry" />
        </mxCell>
        <mxCell id="Aqq1I214zee01IiZER_P-33" value="" style="endArrow=classic;html=1;rounded=0;exitX=1;exitY=0.5;exitDx=0;exitDy=0;entryX=-0.002;entryY=0.506;entryDx=0;entryDy=0;entryPerimeter=0;" parent="1" source="Aqq1I214zee01IiZER_P-7" target="Aqq1I214zee01IiZER_P-11" edge="1">
          <mxGeometry width="50" height="50" relative="1" as="geometry">
            <mxPoint x="700" y="720" as="sourcePoint" />
            <mxPoint x="750" y="670" as="targetPoint" />
          </mxGeometry>
        </mxCell>
        <mxCell id="Aqq1I214zee01IiZER_P-34" value="" style="endArrow=classic;html=1;rounded=0;exitX=0.5;exitY=1;exitDx=0;exitDy=0;entryX=0.499;entryY=0.003;entryDx=0;entryDy=0;entryPerimeter=0;" parent="1" source="Aqq1I214zee01IiZER_P-15" target="Aqq1I214zee01IiZER_P-23" edge="1">
          <mxGeometry width="50" height="50" relative="1" as="geometry">
            <mxPoint x="700" y="830" as="sourcePoint" />
            <mxPoint x="750" y="780" as="targetPoint" />
          </mxGeometry>
        </mxCell>
        <mxCell id="Aqq1I214zee01IiZER_P-35" value="" style="endArrow=classic;html=1;rounded=0;exitX=0.5;exitY=1;exitDx=0;exitDy=0;entryX=0.407;entryY=0;entryDx=0;entryDy=0;entryPerimeter=0;" parent="1" source="Aqq1I214zee01IiZER_P-6" target="Aqq1I214zee01IiZER_P-23" edge="1">
          <mxGeometry width="50" height="50" relative="1" as="geometry">
            <mxPoint x="700" y="830" as="sourcePoint" />
            <mxPoint x="750" y="780" as="targetPoint" />
          </mxGeometry>
        </mxCell>
        <mxCell id="Aqq1I214zee01IiZER_P-36" value="" style="group" parent="1" vertex="1" connectable="0">
          <mxGeometry x="-20" y="890" width="270" height="510" as="geometry" />
        </mxCell>
        <mxCell id="Aqq1I214zee01IiZER_P-37" value="" style="strokeWidth=1;shadow=0;dashed=0;align=center;html=1;shape=mxgraph.mockup.containers.window;align=left;verticalAlign=top;spacingLeft=8;strokeColor2=#008cff;strokeColor3=#c4c4c4;fontColor=#666666;mainText=;fontSize=17;labelBackgroundColor=none;whiteSpace=wrap;" parent="Aqq1I214zee01IiZER_P-36" vertex="1">
          <mxGeometry width="270" height="510" as="geometry" />
        </mxCell>
        <mxCell id="Aqq1I214zee01IiZER_P-40" value="Аналіз води" style="text;html=1;strokeColor=none;fillColor=none;align=center;verticalAlign=middle;whiteSpace=wrap;rounded=0;fontSize=22;" parent="Aqq1I214zee01IiZER_P-36" vertex="1">
          <mxGeometry x="52.5" y="70" width="160" height="60" as="geometry" />
        </mxCell>
        <mxCell id="Owr6f4ymBUTE9V9lqWrB-4" value="Аналіз води на якість (мінералізованість, чистоту і т.д.)" style="rounded=0;whiteSpace=wrap;html=1;" vertex="1" parent="Aqq1I214zee01IiZER_P-36">
          <mxGeometry x="10" y="150" width="250" height="290" as="geometry" />
        </mxCell>
        <mxCell id="Owr6f4ymBUTE9V9lqWrB-5" value="&lt;span style=&quot;font-size: 14px;&quot;&gt;&lt;span style=&quot;white-space: pre;&quot;&gt;&#x9;&lt;/span&gt;&amp;nbsp; &amp;nbsp; &amp;nbsp; &amp;nbsp;Параметри&lt;/span&gt;" style="strokeWidth=1;shadow=0;dashed=0;align=center;html=1;shape=mxgraph.mockup.text.textBox;fontColor=#666666;align=left;fontSize=17;spacingLeft=4;spacingTop=-3;whiteSpace=wrap;strokeColor=#666666;mainText=" vertex="1" parent="Aqq1I214zee01IiZER_P-36">
          <mxGeometry x="35" y="460" width="195" height="35" as="geometry" />
        </mxCell>
        <mxCell id="Aqq1I214zee01IiZER_P-67" value="" style="group" parent="1" vertex="1" connectable="0">
          <mxGeometry x="810" y="900" width="270" height="510" as="geometry" />
        </mxCell>
        <mxCell id="Aqq1I214zee01IiZER_P-68" value="" style="strokeWidth=1;shadow=0;dashed=0;align=center;html=1;shape=mxgraph.mockup.containers.window;align=left;verticalAlign=top;spacingLeft=8;strokeColor2=#008cff;strokeColor3=#c4c4c4;fontColor=#666666;mainText=;fontSize=17;labelBackgroundColor=none;whiteSpace=wrap;" parent="Aqq1I214zee01IiZER_P-67" vertex="1">
          <mxGeometry width="270" height="510" as="geometry" />
        </mxCell>
        <mxCell id="Aqq1I214zee01IiZER_P-69" value="Психолог" style="text;html=1;strokeColor=none;fillColor=none;align=center;verticalAlign=middle;whiteSpace=wrap;rounded=0;fontSize=22;" parent="Aqq1I214zee01IiZER_P-67" vertex="1">
          <mxGeometry x="52.5" y="70" width="160" height="60" as="geometry" />
        </mxCell>
        <mxCell id="Aqq1I214zee01IiZER_P-70" value="&lt;blockquote style=&quot;margin: 0 0 0 40px; border: none; padding: 0px;&quot;&gt;&lt;span style=&quot;font-size: 14px;&quot;&gt;Ваш психолог&lt;/span&gt;&lt;/blockquote&gt;" style="strokeWidth=1;shadow=0;dashed=0;align=center;html=1;shape=mxgraph.mockup.text.textBox;fontColor=#666666;align=left;fontSize=17;spacingLeft=4;spacingTop=-3;whiteSpace=wrap;strokeColor=#666666;mainText=" parent="Aqq1I214zee01IiZER_P-67" vertex="1">
          <mxGeometry x="37.5" y="170" width="195" height="40" as="geometry" />
        </mxCell>
        <mxCell id="Aqq1I214zee01IiZER_P-74" value="" style="strokeWidth=1;shadow=0;dashed=0;align=center;html=1;shape=mxgraph.mockup.containers.window;align=left;verticalAlign=top;spacingLeft=8;strokeColor2=#008cff;strokeColor3=#c4c4c4;fontColor=#666666;mainText=;fontSize=17;labelBackgroundColor=none;whiteSpace=wrap;" parent="1" vertex="1">
          <mxGeometry x="1240" y="1040" width="270" height="510" as="geometry" />
        </mxCell>
        <mxCell id="Aqq1I214zee01IiZER_P-77" value="" style="sketch=0;outlineConnect=0;fontColor=#232F3E;gradientColor=none;fillColor=#232F3D;strokeColor=none;dashed=0;verticalLabelPosition=bottom;verticalAlign=top;align=center;html=1;fontSize=12;fontStyle=0;aspect=fixed;pointerEvents=1;shape=mxgraph.aws4.user;" parent="1" vertex="1">
          <mxGeometry x="1240" y="1070" width="50" height="50" as="geometry" />
        </mxCell>
        <mxCell id="Aqq1I214zee01IiZER_P-78" value="&lt;span style=&quot;font-size: 14px;&quot;&gt;Им&#39;я психолога&lt;/span&gt;" style="strokeWidth=1;shadow=0;dashed=0;align=center;html=1;shape=mxgraph.mockup.text.textBox;fontColor=#666666;align=left;fontSize=17;spacingLeft=4;spacingTop=-3;whiteSpace=wrap;strokeColor=#666666;mainText=" parent="1" vertex="1">
          <mxGeometry x="1290" y="1070" width="220" height="50" as="geometry" />
        </mxCell>
        <mxCell id="Aqq1I214zee01IiZER_P-80" value="" style="group" parent="1" vertex="1" connectable="0">
          <mxGeometry x="390" y="1580" width="270" height="510" as="geometry" />
        </mxCell>
        <mxCell id="Aqq1I214zee01IiZER_P-81" value="" style="strokeWidth=1;shadow=0;dashed=0;align=center;html=1;shape=mxgraph.mockup.containers.window;align=left;verticalAlign=top;spacingLeft=8;strokeColor2=#008cff;strokeColor3=#c4c4c4;fontColor=#666666;mainText=;fontSize=17;labelBackgroundColor=none;whiteSpace=wrap;" parent="Aqq1I214zee01IiZER_P-80" vertex="1">
          <mxGeometry width="270" height="510" as="geometry" />
        </mxCell>
        <mxCell id="Owr6f4ymBUTE9V9lqWrB-44" value="Варінти очистки" style="text;html=1;strokeColor=none;fillColor=none;align=center;verticalAlign=middle;whiteSpace=wrap;rounded=0;fontSize=22;" vertex="1" parent="Aqq1I214zee01IiZER_P-80">
          <mxGeometry x="50" y="50" width="170" height="60" as="geometry" />
        </mxCell>
        <mxCell id="Owr6f4ymBUTE9V9lqWrB-45" value="" style="strokeWidth=1;shadow=0;dashed=0;align=center;html=1;shape=mxgraph.mockup.forms.rrect;rSize=0;strokeColor=#999999;fillColor=#ffffff;recursiveResize=0;" vertex="1" parent="Aqq1I214zee01IiZER_P-80">
          <mxGeometry x="37.5" y="310" width="190" height="120" as="geometry" />
        </mxCell>
        <mxCell id="Owr6f4ymBUTE9V9lqWrB-46" value="Setting 1" style="shape=ellipse;rSize=0;fillColor=#eeeeee;strokeColor=#999999;gradientColor=#cccccc;html=1;align=left;spacingLeft=4;fontSize=17;fontColor=#666666;labelPosition=right;" vertex="1" parent="Owr6f4ymBUTE9V9lqWrB-45">
          <mxGeometry x="8" y="7.5" width="15" height="15" as="geometry" />
        </mxCell>
        <mxCell id="Owr6f4ymBUTE9V9lqWrB-47" value="Setting 2" style="shape=ellipse;rSize=0;fillColor=#eeeeee;strokeColor=#999999;gradientColor=#cccccc;html=1;align=left;spacingLeft=4;fontSize=17;fontColor=#666666;labelPosition=right;" vertex="1" parent="Owr6f4ymBUTE9V9lqWrB-45">
          <mxGeometry x="8" y="37.5" width="15" height="15" as="geometry" />
        </mxCell>
        <mxCell id="Owr6f4ymBUTE9V9lqWrB-48" value="Setting 3" style="shape=ellipse;rSize=0;fillColor=#aaaaaa;strokeColor=#444444;gradientColor=#666666;html=1;align=left;spacingLeft=4;fontSize=17;fontColor=#008cff;labelPosition=right;" vertex="1" parent="Owr6f4ymBUTE9V9lqWrB-45">
          <mxGeometry x="8" y="67.5" width="15" height="15" as="geometry" />
        </mxCell>
        <mxCell id="Owr6f4ymBUTE9V9lqWrB-49" value="" style="shape=ellipse;fillColor=#444444;strokeColor=none;html=1;" vertex="1" parent="Owr6f4ymBUTE9V9lqWrB-48">
          <mxGeometry x="3" y="3" width="9" height="9" as="geometry" />
        </mxCell>
        <mxCell id="Owr6f4ymBUTE9V9lqWrB-50" value="Setting 4" style="shape=ellipse;rSize=0;fillColor=#eeeeee;strokeColor=#999999;gradientColor=#cccccc;html=1;align=left;spacingLeft=4;fontSize=17;fontColor=#666666;labelPosition=right;" vertex="1" parent="Owr6f4ymBUTE9V9lqWrB-45">
          <mxGeometry x="8" y="97.5" width="15" height="15" as="geometry" />
        </mxCell>
        <mxCell id="Owr6f4ymBUTE9V9lqWrB-51" value="&lt;font style=&quot;font-size: 18px;&quot;&gt;Опція 1&lt;/font&gt;" style="text;html=1;strokeColor=none;fillColor=none;align=center;verticalAlign=middle;whiteSpace=wrap;rounded=0;" vertex="1" parent="Aqq1I214zee01IiZER_P-80">
          <mxGeometry x="30" y="130" width="90" height="30" as="geometry" />
        </mxCell>
        <mxCell id="Owr6f4ymBUTE9V9lqWrB-52" value="&lt;font style=&quot;font-size: 18px;&quot;&gt;Опція 2&lt;br&gt;&lt;/font&gt;" style="text;html=1;strokeColor=none;fillColor=none;align=center;verticalAlign=middle;whiteSpace=wrap;rounded=0;" vertex="1" parent="Aqq1I214zee01IiZER_P-80">
          <mxGeometry x="30" y="170" width="90" height="30" as="geometry" />
        </mxCell>
        <mxCell id="Owr6f4ymBUTE9V9lqWrB-53" value="&lt;font style=&quot;font-size: 18px;&quot;&gt;Опція 3&lt;br&gt;&lt;/font&gt;" style="text;html=1;strokeColor=none;fillColor=none;align=center;verticalAlign=middle;whiteSpace=wrap;rounded=0;" vertex="1" parent="Aqq1I214zee01IiZER_P-80">
          <mxGeometry x="30" y="210" width="90" height="30" as="geometry" />
        </mxCell>
        <mxCell id="Owr6f4ymBUTE9V9lqWrB-54" value="" style="html=1;verticalLabelPosition=bottom;labelBackgroundColor=#ffffff;verticalAlign=top;shadow=0;dashed=0;strokeWidth=1;shape=mxgraph.ios7ui.onOffButton;buttonState=off;strokeColor=#38D145;strokeColor2=#aaaaaa;fillColor=#38D145;fillColor2=#ffffff;" vertex="1" parent="Aqq1I214zee01IiZER_P-80">
          <mxGeometry x="149.25" y="177.5" width="70" height="22.5" as="geometry" />
        </mxCell>
        <mxCell id="Owr6f4ymBUTE9V9lqWrB-55" value="" style="html=1;verticalLabelPosition=bottom;labelBackgroundColor=#ffffff;verticalAlign=top;shadow=0;dashed=0;strokeWidth=1;shape=mxgraph.ios7ui.onOffButton;buttonState=off;strokeColor=#38D145;strokeColor2=#aaaaaa;fillColor=#38D145;fillColor2=#ffffff;" vertex="1" parent="Aqq1I214zee01IiZER_P-80">
          <mxGeometry x="147.5" y="220" width="70" height="20" as="geometry" />
        </mxCell>
        <mxCell id="Owr6f4ymBUTE9V9lqWrB-56" value="" style="html=1;verticalLabelPosition=bottom;labelBackgroundColor=#ffffff;verticalAlign=top;shadow=0;dashed=0;strokeWidth=1;shape=mxgraph.ios7ui.onOffButton;buttonState=off;strokeColor=#38D145;strokeColor2=#aaaaaa;fillColor=#38D145;fillColor2=#ffffff;" vertex="1" parent="Aqq1I214zee01IiZER_P-80">
          <mxGeometry x="147.5" y="133.75" width="73.5" height="22.5" as="geometry" />
        </mxCell>
        <mxCell id="Owr6f4ymBUTE9V9lqWrB-57" value="Розпочати очистку" style="rounded=1;fillColor=#007FFF;strokeColor=none;html=1;whiteSpace=wrap;fontColor=#ffffff;align=center;verticalAlign=middle;fontStyle=0;fontSize=12;sketch=0;" vertex="1" parent="Aqq1I214zee01IiZER_P-80">
          <mxGeometry x="80.5" y="460" width="104" height="31" as="geometry" />
        </mxCell>
        <mxCell id="0CA3p6Ihg73a1YQ8VfbU-1" value="" style="group" parent="1" vertex="1" connectable="0">
          <mxGeometry x="390" y="890" width="270" height="510" as="geometry" />
        </mxCell>
        <mxCell id="Aqq1I214zee01IiZER_P-23" value="" style="strokeWidth=1;shadow=0;dashed=0;align=center;html=1;shape=mxgraph.mockup.containers.window;align=left;verticalAlign=top;spacingLeft=8;strokeColor2=#008cff;strokeColor3=#c4c4c4;fontColor=#666666;mainText=;fontSize=17;labelBackgroundColor=none;whiteSpace=wrap;" parent="0CA3p6Ihg73a1YQ8VfbU-1" vertex="1">
          <mxGeometry width="270" height="510" as="geometry" />
        </mxCell>
        <mxCell id="Aqq1I214zee01IiZER_P-24" value="&lt;span style=&quot;white-space: pre;&quot;&gt;&#x9;&amp;nbsp;&lt;/span&gt;&amp;nbsp; &amp;nbsp;Психолог" style="strokeWidth=1;shadow=0;dashed=0;align=center;html=1;shape=mxgraph.mockup.text.textBox;fontColor=#666666;align=left;fontSize=17;spacingLeft=4;spacingTop=-3;whiteSpace=wrap;strokeColor=#666666;mainText=" parent="0CA3p6Ihg73a1YQ8VfbU-1" vertex="1">
          <mxGeometry x="35" y="170" width="195" height="30" as="geometry" />
        </mxCell>
        <mxCell id="Aqq1I214zee01IiZER_P-25" value="&lt;span style=&quot;font-size: 14px;&quot;&gt;&lt;span style=&quot;white-space: pre;&quot;&gt;&#x9;&lt;/span&gt;&amp;nbsp; &amp;nbsp; &amp;nbsp; &amp;nbsp;Аналіз води&lt;/span&gt;" style="strokeWidth=1;shadow=0;dashed=0;align=center;html=1;shape=mxgraph.mockup.text.textBox;fontColor=#666666;align=left;fontSize=17;spacingLeft=4;spacingTop=-3;whiteSpace=wrap;strokeColor=#666666;mainText=" parent="0CA3p6Ihg73a1YQ8VfbU-1" vertex="1">
          <mxGeometry x="35" y="235" width="195" height="35" as="geometry" />
        </mxCell>
        <mxCell id="Aqq1I214zee01IiZER_P-26" value="Перелік послуг" style="text;html=1;strokeColor=none;fillColor=none;align=center;verticalAlign=middle;whiteSpace=wrap;rounded=0;fontSize=22;" parent="0CA3p6Ihg73a1YQ8VfbU-1" vertex="1">
          <mxGeometry x="50" y="70" width="170" height="60" as="geometry" />
        </mxCell>
        <mxCell id="Owr6f4ymBUTE9V9lqWrB-36" style="edgeStyle=orthogonalEdgeStyle;rounded=0;orthogonalLoop=1;jettySize=auto;html=1;" edge="1" parent="0CA3p6Ihg73a1YQ8VfbU-1" source="Aqq1I214zee01IiZER_P-29">
          <mxGeometry relative="1" as="geometry">
            <mxPoint x="132.5" y="690" as="targetPoint" />
          </mxGeometry>
        </mxCell>
        <mxCell id="Aqq1I214zee01IiZER_P-29" value="&lt;font style=&quot;font-size: 14px;&quot;&gt;&lt;span style=&quot;white-space: pre;&quot;&gt;&#x9;&lt;/span&gt;&amp;nbsp; &amp;nbsp; Очистка води&lt;/font&gt;" style="strokeWidth=1;shadow=0;dashed=0;align=center;html=1;shape=mxgraph.mockup.text.textBox;fontColor=#666666;align=left;fontSize=17;spacingLeft=4;spacingTop=-3;whiteSpace=wrap;strokeColor=#666666;mainText=" parent="0CA3p6Ihg73a1YQ8VfbU-1" vertex="1">
          <mxGeometry x="35" y="300" width="195" height="30" as="geometry" />
        </mxCell>
        <mxCell id="Owr6f4ymBUTE9V9lqWrB-3" value="&lt;span style=&quot;white-space: pre;&quot;&gt;&#x9;&lt;/span&gt;&amp;nbsp; &amp;nbsp; Розклад зустрічей" style="strokeWidth=1;shadow=0;dashed=0;align=center;html=1;shape=mxgraph.mockup.text.textBox;fontColor=#666666;align=left;fontSize=17;spacingLeft=4;spacingTop=-3;whiteSpace=wrap;strokeColor=#666666;mainText=" vertex="1" parent="1">
          <mxGeometry x="1240" y="1210" width="260" height="280" as="geometry" />
        </mxCell>
        <mxCell id="Owr6f4ymBUTE9V9lqWrB-6" value="" style="group" vertex="1" connectable="0" parent="1">
          <mxGeometry x="-460" y="900" width="270" height="510" as="geometry" />
        </mxCell>
        <mxCell id="Owr6f4ymBUTE9V9lqWrB-7" value="" style="strokeWidth=1;shadow=0;dashed=0;align=center;html=1;shape=mxgraph.mockup.containers.window;align=left;verticalAlign=top;spacingLeft=8;strokeColor2=#008cff;strokeColor3=#c4c4c4;fontColor=#666666;mainText=;fontSize=17;labelBackgroundColor=none;whiteSpace=wrap;" vertex="1" parent="Owr6f4ymBUTE9V9lqWrB-6">
          <mxGeometry width="270" height="510" as="geometry" />
        </mxCell>
        <mxCell id="Owr6f4ymBUTE9V9lqWrB-8" value="Параметри обілку" style="text;html=1;strokeColor=none;fillColor=none;align=center;verticalAlign=middle;whiteSpace=wrap;rounded=0;fontSize=22;" vertex="1" parent="Owr6f4ymBUTE9V9lqWrB-6">
          <mxGeometry x="52.5" y="70" width="160" height="60" as="geometry" />
        </mxCell>
        <mxCell id="Owr6f4ymBUTE9V9lqWrB-18" value="" style="strokeWidth=1;shadow=0;dashed=0;align=center;html=1;shape=mxgraph.mockup.forms.rrect;rSize=0;strokeColor=#999999;fillColor=#ffffff;recursiveResize=0;" vertex="1" parent="Owr6f4ymBUTE9V9lqWrB-6">
          <mxGeometry x="40" y="350" width="190" height="120" as="geometry" />
        </mxCell>
        <mxCell id="Owr6f4ymBUTE9V9lqWrB-19" value="Setting 1" style="shape=ellipse;rSize=0;fillColor=#eeeeee;strokeColor=#999999;gradientColor=#cccccc;html=1;align=left;spacingLeft=4;fontSize=17;fontColor=#666666;labelPosition=right;" vertex="1" parent="Owr6f4ymBUTE9V9lqWrB-18">
          <mxGeometry x="8" y="7.5" width="15" height="15" as="geometry" />
        </mxCell>
        <mxCell id="Owr6f4ymBUTE9V9lqWrB-20" value="Setting 2" style="shape=ellipse;rSize=0;fillColor=#eeeeee;strokeColor=#999999;gradientColor=#cccccc;html=1;align=left;spacingLeft=4;fontSize=17;fontColor=#666666;labelPosition=right;" vertex="1" parent="Owr6f4ymBUTE9V9lqWrB-18">
          <mxGeometry x="8" y="37.5" width="15" height="15" as="geometry" />
        </mxCell>
        <mxCell id="Owr6f4ymBUTE9V9lqWrB-21" value="Setting 3" style="shape=ellipse;rSize=0;fillColor=#aaaaaa;strokeColor=#444444;gradientColor=#666666;html=1;align=left;spacingLeft=4;fontSize=17;fontColor=#008cff;labelPosition=right;" vertex="1" parent="Owr6f4ymBUTE9V9lqWrB-18">
          <mxGeometry x="8" y="67.5" width="15" height="15" as="geometry" />
        </mxCell>
        <mxCell id="Owr6f4ymBUTE9V9lqWrB-22" value="" style="shape=ellipse;fillColor=#444444;strokeColor=none;html=1;" vertex="1" parent="Owr6f4ymBUTE9V9lqWrB-21">
          <mxGeometry x="3" y="3" width="9" height="9" as="geometry" />
        </mxCell>
        <mxCell id="Owr6f4ymBUTE9V9lqWrB-23" value="Setting 4" style="shape=ellipse;rSize=0;fillColor=#eeeeee;strokeColor=#999999;gradientColor=#cccccc;html=1;align=left;spacingLeft=4;fontSize=17;fontColor=#666666;labelPosition=right;" vertex="1" parent="Owr6f4ymBUTE9V9lqWrB-18">
          <mxGeometry x="8" y="97.5" width="15" height="15" as="geometry" />
        </mxCell>
        <mxCell id="Owr6f4ymBUTE9V9lqWrB-25" value="&lt;font style=&quot;font-size: 18px;&quot;&gt;Опція 1&lt;/font&gt;" style="text;html=1;strokeColor=none;fillColor=none;align=center;verticalAlign=middle;whiteSpace=wrap;rounded=0;" vertex="1" parent="Owr6f4ymBUTE9V9lqWrB-6">
          <mxGeometry x="32.5" y="170" width="90" height="30" as="geometry" />
        </mxCell>
        <mxCell id="Owr6f4ymBUTE9V9lqWrB-27" value="&lt;font style=&quot;font-size: 18px;&quot;&gt;Опція 2&lt;br&gt;&lt;/font&gt;" style="text;html=1;strokeColor=none;fillColor=none;align=center;verticalAlign=middle;whiteSpace=wrap;rounded=0;" vertex="1" parent="Owr6f4ymBUTE9V9lqWrB-6">
          <mxGeometry x="32.5" y="210" width="90" height="30" as="geometry" />
        </mxCell>
        <mxCell id="Owr6f4ymBUTE9V9lqWrB-29" value="&lt;font style=&quot;font-size: 18px;&quot;&gt;Опція 3&lt;br&gt;&lt;/font&gt;" style="text;html=1;strokeColor=none;fillColor=none;align=center;verticalAlign=middle;whiteSpace=wrap;rounded=0;" vertex="1" parent="Owr6f4ymBUTE9V9lqWrB-6">
          <mxGeometry x="32.5" y="250" width="90" height="30" as="geometry" />
        </mxCell>
        <mxCell id="Owr6f4ymBUTE9V9lqWrB-34" value="" style="html=1;verticalLabelPosition=bottom;labelBackgroundColor=#ffffff;verticalAlign=top;shadow=0;dashed=0;strokeWidth=1;shape=mxgraph.ios7ui.onOffButton;buttonState=off;strokeColor=#38D145;strokeColor2=#aaaaaa;fillColor=#38D145;fillColor2=#ffffff;" vertex="1" parent="Owr6f4ymBUTE9V9lqWrB-6">
          <mxGeometry x="151.75" y="217.5" width="70" height="22.5" as="geometry" />
        </mxCell>
        <mxCell id="Owr6f4ymBUTE9V9lqWrB-33" value="" style="html=1;verticalLabelPosition=bottom;labelBackgroundColor=#ffffff;verticalAlign=top;shadow=0;dashed=0;strokeWidth=1;shape=mxgraph.ios7ui.onOffButton;buttonState=off;strokeColor=#38D145;strokeColor2=#aaaaaa;fillColor=#38D145;fillColor2=#ffffff;" vertex="1" parent="Owr6f4ymBUTE9V9lqWrB-6">
          <mxGeometry x="150" y="260" width="70" height="20" as="geometry" />
        </mxCell>
        <mxCell id="Owr6f4ymBUTE9V9lqWrB-32" value="" style="html=1;verticalLabelPosition=bottom;labelBackgroundColor=#ffffff;verticalAlign=top;shadow=0;dashed=0;strokeWidth=1;shape=mxgraph.ios7ui.onOffButton;buttonState=off;strokeColor=#38D145;strokeColor2=#aaaaaa;fillColor=#38D145;fillColor2=#ffffff;" vertex="1" parent="Owr6f4ymBUTE9V9lqWrB-6">
          <mxGeometry x="150" y="173.75" width="73.5" height="22.5" as="geometry" />
        </mxCell>
        <mxCell id="Owr6f4ymBUTE9V9lqWrB-11" style="edgeStyle=orthogonalEdgeStyle;rounded=0;orthogonalLoop=1;jettySize=auto;html=1;entryX=1.005;entryY=0.594;entryDx=0;entryDy=0;entryPerimeter=0;" edge="1" parent="1" source="Owr6f4ymBUTE9V9lqWrB-5" target="Owr6f4ymBUTE9V9lqWrB-7">
          <mxGeometry relative="1" as="geometry" />
        </mxCell>
        <mxCell id="Owr6f4ymBUTE9V9lqWrB-59" style="edgeStyle=orthogonalEdgeStyle;rounded=0;orthogonalLoop=1;jettySize=auto;html=1;entryX=1.008;entryY=0.496;entryDx=0;entryDy=0;entryPerimeter=0;" edge="1" parent="1" source="Aqq1I214zee01IiZER_P-25" target="Aqq1I214zee01IiZER_P-37">
          <mxGeometry relative="1" as="geometry" />
        </mxCell>
        <mxCell id="Owr6f4ymBUTE9V9lqWrB-60" style="edgeStyle=orthogonalEdgeStyle;rounded=0;orthogonalLoop=1;jettySize=auto;html=1;" edge="1" parent="1" source="Aqq1I214zee01IiZER_P-24" target="Aqq1I214zee01IiZER_P-68">
          <mxGeometry relative="1" as="geometry" />
        </mxCell>
        <mxCell id="Owr6f4ymBUTE9V9lqWrB-61" style="edgeStyle=orthogonalEdgeStyle;rounded=0;orthogonalLoop=1;jettySize=auto;html=1;" edge="1" parent="1" source="Aqq1I214zee01IiZER_P-70" target="Aqq1I214zee01IiZER_P-74">
          <mxGeometry relative="1" as="geometry" />
        </mxCell>
      </root>
    </mxGraphModel>
  </diagram>
  <diagram id="tJlaX0nIGvWO8mNBwgZZ" name="Страница — 2">
    <mxGraphModel dx="1434" dy="844" grid="1" gridSize="10" guides="1" tooltips="1" connect="1" arrows="1" fold="1" page="1" pageScale="1" pageWidth="1950" pageHeight="1410" math="0" shadow="0">
      <root>
        <mxCell id="0" />
        <mxCell id="1" parent="0" />
        <mxCell id="1-SCLKFMV71DE_VupgSB-1" value="" style="group" vertex="1" connectable="0" parent="1">
          <mxGeometry x="240" y="820" width="270" height="510" as="geometry" />
        </mxCell>
        <mxCell id="1-SCLKFMV71DE_VupgSB-2" value="AirPurity Prosperity" style="strokeWidth=1;shadow=0;dashed=0;align=center;html=1;shape=mxgraph.mockup.containers.window;align=left;verticalAlign=top;spacingLeft=8;strokeColor2=#008cff;strokeColor3=#c4c4c4;fontColor=#666666;mainText=;fontSize=17;labelBackgroundColor=none;whiteSpace=wrap;" vertex="1" parent="1-SCLKFMV71DE_VupgSB-1">
          <mxGeometry width="270" height="510" as="geometry" />
        </mxCell>
        <mxCell id="1-SCLKFMV71DE_VupgSB-3" value="Меню танців" style="text;html=1;strokeColor=none;fillColor=none;align=center;verticalAlign=middle;whiteSpace=wrap;rounded=0;fontSize=22;" vertex="1" parent="1-SCLKFMV71DE_VupgSB-1">
          <mxGeometry x="52.5" y="70" width="160" height="60" as="geometry" />
        </mxCell>
        <mxCell id="1-SCLKFMV71DE_VupgSB-4" value="&lt;span style=&quot;font-size: 14px;&quot;&gt;&amp;nbsp; &amp;nbsp; &amp;nbsp; Написати хореографу&lt;/span&gt;" style="strokeWidth=1;shadow=0;dashed=0;align=center;html=1;shape=mxgraph.mockup.text.textBox;fontColor=#666666;align=left;fontSize=17;spacingLeft=4;spacingTop=-3;whiteSpace=wrap;strokeColor=#666666;mainText=" vertex="1" parent="1-SCLKFMV71DE_VupgSB-1">
          <mxGeometry x="37.5" y="170" width="195" height="40" as="geometry" />
        </mxCell>
        <mxCell id="1-SCLKFMV71DE_VupgSB-5" value="&lt;span style=&quot;font-size: 14px;&quot;&gt;&amp;nbsp; &amp;nbsp; &amp;nbsp; &amp;nbsp;Топ 10 відео танців&lt;/span&gt;" style="strokeWidth=1;shadow=0;dashed=0;align=center;html=1;shape=mxgraph.mockup.text.textBox;fontColor=#666666;align=left;fontSize=17;spacingLeft=4;spacingTop=-3;whiteSpace=wrap;strokeColor=#666666;mainText=" vertex="1" parent="1-SCLKFMV71DE_VupgSB-1">
          <mxGeometry x="35" y="240" width="195" height="40" as="geometry" />
        </mxCell>
        <mxCell id="1-SCLKFMV71DE_VupgSB-6" value="&lt;span style=&quot;font-size: 14px;&quot;&gt;&lt;span style=&quot;white-space: pre;&quot;&gt;&#x9;&lt;/span&gt;&amp;nbsp; &amp;nbsp; &amp;nbsp; Виконавці&lt;/span&gt;" style="strokeWidth=1;shadow=0;dashed=0;align=center;html=1;shape=mxgraph.mockup.text.textBox;fontColor=#666666;align=left;fontSize=17;spacingLeft=4;spacingTop=-3;whiteSpace=wrap;strokeColor=#666666;mainText=" vertex="1" parent="1-SCLKFMV71DE_VupgSB-1">
          <mxGeometry x="37.5" y="310" width="195" height="40" as="geometry" />
        </mxCell>
        <mxCell id="1-SCLKFMV71DE_VupgSB-12" value="" style="endArrow=classic;html=1;rounded=0;exitX=1.022;exitY=0.543;exitDx=0;exitDy=0;exitPerimeter=0;entryX=0.007;entryY=0.365;entryDx=0;entryDy=0;entryPerimeter=0;" edge="1" parent="1" source="1-SCLKFMV71DE_VupgSB-4" target="1-SCLKFMV71DE_VupgSB-7">
          <mxGeometry width="50" height="50" relative="1" as="geometry">
            <mxPoint x="440" y="1170" as="sourcePoint" />
            <mxPoint x="490" y="1120" as="targetPoint" />
          </mxGeometry>
        </mxCell>
        <mxCell id="1-SCLKFMV71DE_VupgSB-13" value="" style="group" vertex="1" connectable="0" parent="1">
          <mxGeometry x="670" y="830" width="270" height="510" as="geometry" />
        </mxCell>
        <mxCell id="1-SCLKFMV71DE_VupgSB-7" value="AirPurity Prosperity" style="strokeWidth=1;shadow=0;dashed=0;align=center;html=1;shape=mxgraph.mockup.containers.window;align=left;verticalAlign=top;spacingLeft=8;strokeColor2=#008cff;strokeColor3=#c4c4c4;fontColor=#666666;mainText=;fontSize=17;labelBackgroundColor=none;whiteSpace=wrap;" vertex="1" parent="1-SCLKFMV71DE_VupgSB-13">
          <mxGeometry width="270" height="510" as="geometry" />
        </mxCell>
        <mxCell id="1-SCLKFMV71DE_VupgSB-8" value="Доброго дня, бажаю отримати &lt;br&gt;нові танцювальні відео" style="html=1;shadow=0;dashed=0;shape=mxgraph.bootstrap.rrect;rSize=5;strokeColor=#000000;strokeWidth=1;fillColor=#E9ECEF;fontColor=#505050;whiteSpace=wrap;align=left;verticalAlign=middle;spacingLeft=10;fontSize=14;" vertex="1" parent="1-SCLKFMV71DE_VupgSB-13">
          <mxGeometry y="470" width="270" height="40" as="geometry" />
        </mxCell>
        <mxCell id="1-SCLKFMV71DE_VupgSB-9" value="" style="html=1;verticalLabelPosition=bottom;align=center;labelBackgroundColor=#ffffff;verticalAlign=top;strokeWidth=2;strokeColor=#0080F0;shadow=0;dashed=0;shape=mxgraph.ios7.icons.pointer;" vertex="1" parent="1-SCLKFMV71DE_VupgSB-13">
          <mxGeometry x="230" y="475" width="30" height="30" as="geometry" />
        </mxCell>
        <mxCell id="1-SCLKFMV71DE_VupgSB-10" value="" style="sketch=0;outlineConnect=0;fontColor=#232F3E;gradientColor=none;fillColor=#232F3D;strokeColor=none;dashed=0;verticalLabelPosition=bottom;verticalAlign=top;align=center;html=1;fontSize=12;fontStyle=0;aspect=fixed;pointerEvents=1;shape=mxgraph.aws4.user;" vertex="1" parent="1-SCLKFMV71DE_VupgSB-13">
          <mxGeometry y="30" width="50" height="50" as="geometry" />
        </mxCell>
        <mxCell id="1-SCLKFMV71DE_VupgSB-11" value="&lt;span style=&quot;font-size: 14px;&quot;&gt;Хореограф&lt;/span&gt;" style="strokeWidth=1;shadow=0;dashed=0;align=center;html=1;shape=mxgraph.mockup.text.textBox;fontColor=#666666;align=left;fontSize=17;spacingLeft=4;spacingTop=-3;whiteSpace=wrap;strokeColor=#666666;mainText=" vertex="1" parent="1-SCLKFMV71DE_VupgSB-13">
          <mxGeometry x="50" y="30" width="220" height="50" as="geometry" />
        </mxCell>
      </root>
    </mxGraphModel>
  </diagram>
  <diagram id="H1xcm-4ljgq1sMklnIBd" name="Страница — 4">
    <mxGraphModel dx="1434" dy="844" grid="1" gridSize="10" guides="1" tooltips="1" connect="1" arrows="1" fold="1" page="1" pageScale="1" pageWidth="1950" pageHeight="1410" math="0" shadow="0">
      <root>
        <mxCell id="0" />
        <mxCell id="1" parent="0" />
        <mxCell id="s1Ffu4y3qgAskl1XGbIZ-1" value="" style="group" vertex="1" connectable="0" parent="1">
          <mxGeometry x="720" y="180" width="270" height="510" as="geometry" />
        </mxCell>
        <mxCell id="s1Ffu4y3qgAskl1XGbIZ-2" value="AirPurity Prosperity" style="strokeWidth=1;shadow=0;dashed=0;align=center;html=1;shape=mxgraph.mockup.containers.window;align=left;verticalAlign=top;spacingLeft=8;strokeColor2=#008cff;strokeColor3=#c4c4c4;fontColor=#666666;mainText=;fontSize=17;labelBackgroundColor=none;whiteSpace=wrap;" vertex="1" parent="s1Ffu4y3qgAskl1XGbIZ-1">
          <mxGeometry width="270" height="510" as="geometry" />
        </mxCell>
        <mxCell id="s1Ffu4y3qgAskl1XGbIZ-3" value="&amp;nbsp; &amp;nbsp; &lt;span style=&quot;white-space: pre;&quot;&gt;&#x9;&lt;/span&gt;&lt;span style=&quot;white-space: pre; font-size: 17px;&quot;&gt;&#x9;&lt;/span&gt;&lt;span style=&quot;font-size: 17px; white-space: pre;&quot;&gt;&amp;nbsp;     &lt;/span&gt;100 грн" style="strokeWidth=1;shadow=0;dashed=0;align=center;html=1;shape=mxgraph.mockup.text.textBox;fontColor=#666666;align=left;fontSize=14;spacingLeft=4;spacingTop=-3;whiteSpace=wrap;strokeColor=#666666;mainText=" vertex="1" parent="s1Ffu4y3qgAskl1XGbIZ-1">
          <mxGeometry x="35" y="140" width="195" height="30" as="geometry" />
        </mxCell>
        <mxCell id="s1Ffu4y3qgAskl1XGbIZ-4" value="&amp;nbsp; &amp;nbsp; &amp;nbsp; &amp;nbsp; &amp;nbsp; &amp;nbsp; &amp;nbsp; &amp;nbsp; &amp;nbsp; томати" style="strokeWidth=1;shadow=0;dashed=0;align=center;html=1;shape=mxgraph.mockup.text.textBox;fontColor=#666666;align=left;fontSize=14;spacingLeft=4;spacingTop=-3;whiteSpace=wrap;strokeColor=#666666;mainText=" vertex="1" parent="s1Ffu4y3qgAskl1XGbIZ-1">
          <mxGeometry x="35" y="200" width="195" height="30" as="geometry" />
        </mxCell>
        <mxCell id="s1Ffu4y3qgAskl1XGbIZ-5" value="Додати витрату" style="rounded=1;fillColor=#007FFF;strokeColor=none;html=1;whiteSpace=wrap;fontColor=#ffffff;align=center;verticalAlign=middle;fontStyle=0;fontSize=12;sketch=0;" vertex="1" parent="s1Ffu4y3qgAskl1XGbIZ-1">
          <mxGeometry x="45" y="361" width="180" height="48" as="geometry" />
        </mxCell>
        <mxCell id="s1Ffu4y3qgAskl1XGbIZ-6" value="Додати прибуток" style="rounded=1;fillColor=#007FFF;strokeColor=none;html=1;whiteSpace=wrap;fontColor=#ffffff;align=center;verticalAlign=middle;fontStyle=0;fontSize=12;sketch=0;" vertex="1" parent="s1Ffu4y3qgAskl1XGbIZ-1">
          <mxGeometry x="45" y="430" width="180" height="40" as="geometry" />
        </mxCell>
        <mxCell id="s1Ffu4y3qgAskl1XGbIZ-7" value="&amp;nbsp; &amp;nbsp; &amp;nbsp; &amp;nbsp; &amp;nbsp; &amp;nbsp; &amp;nbsp; &amp;nbsp; 24.09.23" style="strokeWidth=1;shadow=0;dashed=0;align=center;html=1;shape=mxgraph.mockup.text.textBox;fontColor=#666666;align=left;fontSize=14;spacingLeft=4;spacingTop=-3;whiteSpace=wrap;strokeColor=#666666;mainText=" vertex="1" parent="s1Ffu4y3qgAskl1XGbIZ-1">
          <mxGeometry x="35" y="260" width="195" height="30" as="geometry" />
        </mxCell>
        <mxCell id="s1Ffu4y3qgAskl1XGbIZ-8" value="Залишок: 8280&amp;nbsp;" style="strokeWidth=1;shadow=0;dashed=0;align=center;html=1;shape=mxgraph.mockup.text.textBox;fontColor=#666666;align=left;fontSize=14;spacingLeft=4;spacingTop=-3;whiteSpace=wrap;strokeColor=#666666;mainText=" vertex="1" parent="s1Ffu4y3qgAskl1XGbIZ-1">
          <mxGeometry x="140" y="30" width="130" height="30" as="geometry" />
        </mxCell>
        <mxCell id="3u0Flyi5-D5oU82mK-3P-1" value="" style="group" vertex="1" connectable="0" parent="1">
          <mxGeometry x="380" y="190" width="270" height="510" as="geometry" />
        </mxCell>
        <mxCell id="3u0Flyi5-D5oU82mK-3P-2" value="AirPurity Prosperity" style="strokeWidth=1;shadow=0;dashed=0;align=center;html=1;shape=mxgraph.mockup.containers.window;align=left;verticalAlign=top;spacingLeft=8;strokeColor2=#008cff;strokeColor3=#c4c4c4;fontColor=#666666;mainText=;fontSize=17;labelBackgroundColor=none;whiteSpace=wrap;" vertex="1" parent="3u0Flyi5-D5oU82mK-3P-1">
          <mxGeometry y="-10" width="270" height="510" as="geometry" />
        </mxCell>
        <mxCell id="3u0Flyi5-D5oU82mK-3P-3" value="&lt;font style=&quot;font-size: 14px;&quot;&gt;&amp;nbsp; &amp;nbsp; &amp;nbsp; &amp;nbsp; &amp;nbsp; &amp;nbsp; &amp;nbsp;Меню танців&lt;/font&gt;" style="strokeWidth=1;shadow=0;dashed=0;align=center;html=1;shape=mxgraph.mockup.text.textBox;fontColor=#666666;align=left;fontSize=17;spacingLeft=4;spacingTop=-3;whiteSpace=wrap;strokeColor=#666666;mainText=" vertex="1" parent="3u0Flyi5-D5oU82mK-3P-1">
          <mxGeometry x="35" y="170" width="195" height="30" as="geometry" />
        </mxCell>
        <mxCell id="3u0Flyi5-D5oU82mK-3P-4" value="&lt;font style=&quot;font-size: 14px;&quot;&gt;&amp;nbsp; &amp;nbsp; &amp;nbsp; &amp;nbsp; &amp;nbsp; &amp;nbsp; Меню здоров&#39;я&lt;/font&gt;" style="strokeWidth=1;shadow=0;dashed=0;align=center;html=1;shape=mxgraph.mockup.text.textBox;fontColor=#666666;align=left;fontSize=17;spacingLeft=4;spacingTop=-3;whiteSpace=wrap;strokeColor=#666666;mainText=" vertex="1" parent="3u0Flyi5-D5oU82mK-3P-1">
          <mxGeometry x="35" y="235" width="195" height="35" as="geometry" />
        </mxCell>
        <mxCell id="3u0Flyi5-D5oU82mK-3P-5" value="Меню послуг" style="text;html=1;strokeColor=none;fillColor=none;align=center;verticalAlign=middle;whiteSpace=wrap;rounded=0;fontSize=22;" vertex="1" parent="3u0Flyi5-D5oU82mK-3P-1">
          <mxGeometry x="60" y="70" width="150" height="60" as="geometry" />
        </mxCell>
        <mxCell id="3u0Flyi5-D5oU82mK-3P-6" value="&lt;font style=&quot;font-size: 14px;&quot;&gt;&amp;nbsp; &amp;nbsp; &amp;nbsp; &amp;nbsp; &amp;nbsp; &amp;nbsp; &amp;nbsp; Скарбничка&lt;/font&gt;" style="strokeWidth=1;shadow=0;dashed=0;align=center;html=1;shape=mxgraph.mockup.text.textBox;fontColor=#666666;align=left;fontSize=17;spacingLeft=4;spacingTop=-3;whiteSpace=wrap;strokeColor=#666666;mainText=" vertex="1" parent="3u0Flyi5-D5oU82mK-3P-1">
          <mxGeometry x="35" y="300" width="195" height="30" as="geometry" />
        </mxCell>
        <mxCell id="3u0Flyi5-D5oU82mK-3P-7" value="&lt;font style=&quot;font-size: 14px;&quot;&gt;&amp;nbsp; &amp;nbsp; &amp;nbsp; &amp;nbsp; &amp;nbsp; &amp;nbsp; &amp;nbsp; &amp;nbsp; &amp;nbsp;Профіль&lt;/font&gt;" style="strokeWidth=1;shadow=0;dashed=0;align=center;html=1;shape=mxgraph.mockup.text.textBox;fontColor=#666666;align=left;fontSize=17;spacingLeft=4;spacingTop=-3;whiteSpace=wrap;strokeColor=#666666;mainText=" vertex="1" parent="3u0Flyi5-D5oU82mK-3P-1">
          <mxGeometry x="35" y="360" width="195" height="30" as="geometry" />
        </mxCell>
        <mxCell id="3u0Flyi5-D5oU82mK-3P-8" value="" style="endArrow=classic;html=1;rounded=0;exitX=1;exitY=0.5;exitDx=0;exitDy=0;exitPerimeter=0;entryX=-0.004;entryY=0.641;entryDx=0;entryDy=0;entryPerimeter=0;" edge="1" parent="1" source="3u0Flyi5-D5oU82mK-3P-6" target="s1Ffu4y3qgAskl1XGbIZ-2">
          <mxGeometry width="50" height="50" relative="1" as="geometry">
            <mxPoint x="700" y="490" as="sourcePoint" />
            <mxPoint x="750" y="440" as="targetPoint" />
          </mxGeometry>
        </mxCell>
      </root>
    </mxGraphModel>
  </diagram>
</mxfile>
